<svg width="100%" height="100%" viewBox="0 0 355 204" fill="none" xmlns="http://www.w3.org/2000/svg">
<path d="M122.826 188.285C59.0133 166.814 60.8606 167.818 55.8738 151.868C55.4015 150.358 53.981 150.116 45.5358 150.111C30.5301 150.102 18.3305 148.993 21.2711 147.905C29.0683 145.021 327.686 145.021 335.483 147.905C338.54 149.036 326.943 150.117 311.756 150.117C301.802 150.117 301.276 150.223 300.723 152.337C297.005 166.553 294.844 167.728 235.814 187.644C171.378 209.384 185.298 209.305 122.826 188.285ZM232.493 182.57C284.812 164.99 285.749 164.632 289.182 160.957C290.922 159.093 294.484 152.337 294.484 150.9C294.484 150.744 242.241 150.617 178.389 150.617C62.756 150.617 62.2963 150.625 62.9091 152.619C66.241 163.457 62.3738 161.758 153.854 192.591C180.157 201.456 173.922 202.251 232.493 182.57ZM53.762 98.1039C32.2922 97.6961 11.3479 97.2909 7.2191 97.2035C-7.67918 96.8881 2.52273 95.1044 19.3136 95.0889C39.3238 95.0704 37.8186 96.5818 33.0154 81.3317C26.7768 61.5237 28.8454 50.8439 40.276 43.8476C45.7354 40.5061 173.36 -0.00205154 178.422 7.79286e-08C181.174 0.00100087 303.376 37.8344 313.658 41.8685C326.667 46.9724 330.232 60.9052 323.667 80.9846C318.655 96.3125 317.452 95.0707 337.333 95.0889C359.107 95.1089 361.31 96.5767 340.839 97.425C316.679 98.4263 97.9588 98.9435 53.762 98.1039ZM317.431 80.1342C322.892 62.0803 322.837 55.9646 314.703 49.6717C306.448 43.2857 185.17 6.04053 178.491 6.01585C175.755 6.00575 92.7083 31.3572 53.6836 44.1156C35.2107 50.1549 32.3949 57.2317 39.3518 80.1342C39.6752 81.199 40.4663 84.4924 41.3491 87.6816C42.2402 90.9014 42.3185 94.4975 44.9993 94.5082C88.7421 94.6831 273.377 94.792 310.439 94.5945C314.947 94.5705 316.861 82.0198 317.431 80.1342ZM153.36 84.7233C154.182 83.9518 160.577 81.7063 167.569 79.7331C192.06 72.8226 192.886 71.1596 171.871 71.0774C155.258 71.0124 149.791 70.4972 145.074 68.5524C143.458 67.886 143.359 68.3203 143.961 73.441C144.794 80.5325 143.766 80.6544 137.487 74.2084C124.484 60.8612 105 63.144 95.138 79.1702C89.9089 87.6676 86.8562 81.5693 90.8251 70.5543C91.6184 68.3525 92.2743 66.4545 92.2825 66.3365C92.3273 65.6999 82.5663 70.3895 81.3453 71.5912C80.0915 72.8253 80.4203 73.4606 83.8476 76.426C89.3765 81.2097 68.2389 83.1941 58.5878 78.7974C48.0527 73.9979 89.2447 52.6668 113.96 50.1229C122.783 49.2149 123.557 48.9252 135.48 42.0693C156.648 29.8981 175.882 25.763 196.08 29.0408C204.304 30.3753 244.744 42.4501 245.159 43.695C246.282 47.0628 216.686 49.3584 212.328 46.2415C196.054 34.6029 166.868 35.3353 138.841 48.0858C123.316 55.1483 175.196 57.4979 215.912 51.5763C255.267 45.8525 278.259 46.5406 294.996 53.943C300.384 56.3261 300.681 57.5891 296.031 58.3436C284.789 60.1676 280.44 63.0672 282.599 67.2985C285.444 72.8742 286.372 82.0633 284.09 82.0633C283.173 82.0633 282.03 81.05 281.548 79.8116C275.283 63.6967 241.084 65.5563 237.756 82.1928C236.995 85.9988 234.364 85.6558 233.282 81.6094C232.407 78.3378 232.975 75.0123 235.143 70.7115C237.701 65.6397 220.655 68.0603 205.663 74.8981C190.839 81.659 181.327 83.8465 159.366 85.5456C152.904 86.0454 152.072 85.9315 153.36 84.7233Z" fill="white"/>
<path d="M26.5286 123.475V132.701H22.1999V109.199H26.5286V119.043H29.9606V109.199H34.2893V132.701H29.9606V123.475H26.5286ZM48.212 132.701H43.8833V113.631C43.8833 110.434 45.1613 108.836 47.7173 108.836H50.0053C51.5101 108.836 52.5819 109.417 53.2209 110.58C53.8187 109.417 54.8906 108.836 56.4365 108.836H58.7246C61.2806 108.836 62.5586 110.434 62.5586 113.631V132.701H58.2299V113.195C58.2299 113.001 58.168 112.832 58.0443 112.686C57.9413 112.541 57.8073 112.469 57.6424 112.469H55.9727C55.8078 112.469 55.6636 112.541 55.5399 112.686C55.4368 112.832 55.3853 113.001 55.3853 113.195V132.701H51.0566V113.195C51.0566 113.001 50.9947 112.832 50.8711 112.686C50.768 112.541 50.634 112.469 50.4691 112.469H48.7995C48.6346 112.469 48.4903 112.541 48.3666 112.686C48.2635 112.832 48.212 113.001 48.212 113.195V132.701Z" fill="white"/>
<path d="M90.0763 123.475V132.701H85.7476V109.199H94.7761V113.595H90.0763V119.225H94.4669V123.475H90.0763ZM116.719 113.631V128.269C116.719 131.466 115.441 133.064 112.885 133.064H108.773C106.217 133.064 104.939 131.466 104.939 128.269V113.631C104.939 110.434 106.217 108.836 108.773 108.836H112.885C115.441 108.836 116.719 110.434 116.719 113.631ZM112.39 128.85V113.013C112.39 112.82 112.328 112.65 112.205 112.505C112.102 112.36 111.968 112.287 111.803 112.287H109.855C109.69 112.287 109.546 112.36 109.422 112.505C109.319 112.65 109.267 112.82 109.267 113.013V128.85C109.267 129.044 109.319 129.214 109.422 129.359C109.546 129.504 109.69 129.577 109.855 129.577H111.803C111.968 129.577 112.102 129.504 112.205 129.359C112.328 129.214 112.39 129.044 112.39 128.85ZM131.859 128.415H136.59V132.701H127.531V109.199H131.859V128.415ZM150.587 109.199V132.701H146.258V109.199H150.587ZM165.758 128.487H170.551V132.701H161.429V109.199H170.551V113.34H165.758V118.862H170.241V122.857H165.758V128.487ZM192.153 132.701H187.825V113.195C187.825 113.001 187.763 112.832 187.639 112.686C187.536 112.541 187.402 112.469 187.237 112.469H185.567C185.402 112.469 185.258 112.541 185.135 112.686C185.031 112.832 184.98 113.001 184.98 113.195V132.701H180.651V113.631C180.651 110.434 181.929 108.836 184.485 108.836H188.319C190.875 108.836 192.153 110.434 192.153 113.631V132.701ZM201.543 113.522V109.199H212.365V113.522H209.118V132.701H204.789V113.522H201.543ZM226.299 128.487H231.092V132.701H221.971V109.199H231.092V113.34H226.299V118.862H230.783V122.857H226.299V128.487ZM248.675 128.85V125.218H252.787V128.269C252.787 131.466 251.509 133.064 248.953 133.064H245.057C242.501 133.064 241.223 131.466 241.223 128.269V113.631C241.223 110.434 242.501 108.836 245.057 108.836H248.953C251.509 108.836 252.787 110.434 252.787 113.631V115.847H248.675V113.013C248.675 112.82 248.613 112.65 248.489 112.505C248.386 112.36 248.252 112.287 248.087 112.287H246.14C245.975 112.287 245.83 112.36 245.707 112.505C245.604 112.65 245.552 112.82 245.552 113.013V128.85C245.552 129.044 245.604 129.214 245.707 129.359C245.83 129.504 245.975 129.577 246.14 129.577H248.087C248.252 129.577 248.386 129.504 248.489 129.359C248.613 129.214 248.675 129.044 248.675 128.85ZM267.34 123.475V132.701H263.012V109.199H267.34V119.043H270.772V109.199H275.101V132.701H270.772V123.475H267.34ZM297.291 132.701H292.962V113.195C292.962 113.001 292.901 112.832 292.777 112.686C292.674 112.541 292.54 112.469 292.375 112.469H290.705C290.54 112.469 290.396 112.541 290.273 112.686C290.169 112.832 290.118 113.001 290.118 113.195V132.701H285.789V113.631C285.789 110.434 287.067 108.836 289.623 108.836H293.457C296.013 108.836 297.291 110.434 297.291 113.631V132.701ZM312.153 109.199V132.701H307.825V109.199H312.153ZM335.457 109.199L332.056 119.988L336.106 132.701H331.685L328.716 123.402H327.325V132.701H322.996V109.199H327.325V119.043H328.376L331.499 109.199H335.457Z" fill="white"/>
</svg>
