<svg
   version="1.1"
   id="svg1"
   width="100%"
   height="100%"
   viewBox="0 0 361.37527 200.85591"
   sodipodi:docname="Firmenlogo_Folie_SVG.svg"
   inkscape:version="1.3.2 (091e20e, 2023-11-25, custom)"
   inkscape:export-filename="Firmenlogo_Folie_SVG_splitted.svg"
   inkscape:export-xdpi="96"
   inkscape:export-ydpi="96"
   xmlns:inkscape="http://www.inkscape.org/namespaces/inkscape"
   xmlns:sodipodi="http://sodipodi.sourceforge.net/DTD/sodipodi-0.dtd">
  <defs
     id="defs1" />
  <sodipodi:namedview
     id="namedview1"
     pagecolor="#ffffff"
     bordercolor="#ffffff"
     borderopacity="0.25"
     inkscape:showpageshadow="2"
     inkscape:pageopacity="0.0"
     inkscape:pagecheckerboard="0"
     inkscape:deskcolor="#d1d1d1"
     inkscape:zoom="4"
     inkscape:cx="145.875"
     inkscape:cy="159.25"
     inkscape:window-width="3840"
     inkscape:window-height="2054"
     inkscape:window-x="-11"
     inkscape:window-y="-11"
     inkscape:window-maximized="1"
     inkscape:current-layer="g1" />
  <g
     inkscape:groupmode="layer"
     inkscape:label="Image"
     id="g1"
     transform="translate(-18.64655,252.34499)">
    <g
       id="g4"
       transform="translate(-105.25,60.75)">
      <path
         style="font-size:33.484px;line-height:0;letter-spacing:7.07488px;word-spacing:0.984565px;fill:currentcolor;stroke-width:0.784779"
         d="m 248.98744,-127.9419 c -63.7536,-21.45418 -61.90795,-20.45016 -66.89016,-36.38764 -0.4719,-1.50954 -1.89108,-1.75082 -10.32845,-1.75599 -14.99193,-0.009 -27.18022,-1.11736 -24.24237,-2.20414 7.79003,-2.88172 306.13227,-2.8816 313.92231,1.2e-4 3.05414,1.1298 -8.5328,2.21001 -23.70583,2.21001 -9.9444,0 -10.47042,0.10586 -11.02286,2.21839 -3.7146,14.20466 -5.87285,15.37879 -64.84892,35.27905 -64.37645,21.7225 -50.46958,21.64363 -112.88372,0.6402 z m 109.56624,-5.71051 c 52.27025,-17.56604 53.20702,-17.92324 56.63604,-21.59576 1.73861,-1.86207 5.29777,-8.61345 5.29771,-10.04925 0,-0.15517 -52.19463,-0.28212 -115.98805,-0.28212 -115.52628,0 -115.98559,0.008 -115.3733,2 3.32877,10.8299 -0.53484,9.13155 90.86136,39.94053 26.27812,8.85815 20.04881,9.65209 78.56624,-10.0134 z"
         id="path1"
         sodipodi:nodetypes="sscsssssssssssss"
         inkscape:export-filename="Firmenlogo_Folie_SVG.svg"
         inkscape:export-xdpi="96"
         inkscape:export-ydpi="96"
         inkscape:label="bottom" />
      <path
         d="m 127.60312,-191.37533 v 6.93405 h -3.70657 v -17.66271 h 7.73086 v 3.30322 h -4.02429 v 4.23141 h 3.75953 v 3.19403 z m 22.16499,-7.39813 v 11.00165 q 0,3.60352 -3.28297,3.60352 h -3.52124 q -3.28297,0 -3.28297,-3.60352 v -11.00165 q 0,-3.60352 3.28297,-3.60352 h 3.52124 q 3.28297,0 3.28297,3.60352 z m -3.70658,11.43844 v -11.90254 q 0,-0.21839 -0.15884,-0.38219 -0.13239,-0.16379 -0.34419,-0.16379 h -1.66796 q -0.21181,0 -0.37065,0.16379 -0.13238,0.1638 -0.13238,0.38219 v 11.90254 q 0,0.21839 0.13238,0.38219 0.15884,0.1638 0.37065,0.1638 h 1.66796 q 0.2118,0 0.34419,-0.1638 0.15884,-0.1638 0.15884,-0.38219 z m 16.02263,-0.32759 h 4.05076 v 3.22133 h -7.75733 v -17.66271 h 3.70657 z m 15.38721,-14.44138 v 17.66271 h -3.70657 v -17.66271 z m 12.34254,14.49598 h 4.1037 v 3.16673 h -7.81028 v -17.66271 h 7.81028 v 3.11213 h -4.1037 v 4.14951 h 3.83895 v 3.00293 h -3.83895 z m 21.95314,3.16673 h -3.70657 v -14.65977 q 0,-0.2184 -0.15886,-0.38219 -0.13237,-0.1638 -0.34417,-0.1638 h -1.42968 q -0.21181,0 -0.37066,0.1638 -0.13238,0.16379 -0.13238,0.38219 v 14.65977 h -3.70657 v -14.33218 q 0,-3.60352 3.28297,-3.60352 h 3.28296 q 3.28296,0 3.28296,3.60352 z m 7.39163,-14.41409 v -3.24862 h 9.26643 v 3.24862 h -2.77993 v 14.41409 h -3.70657 v -14.41409 z m 20.54999,11.24736 h 4.10371 v 3.16673 h -7.81028 v -17.66271 h 7.81028 v 3.11213 h -4.10371 v 4.14951 h 3.83895 v 3.00293 h -3.83895 z m 18.51132,0.27299 v -2.72994 h 3.52125 v 2.29315 q 0,3.60352 -3.28296,3.60352 h -3.33592 q -3.28297,0 -3.28297,-3.60352 v -11.00165 q 0,-3.60352 3.28297,-3.60352 h 3.33592 q 3.28296,0 3.28296,3.60352 v 1.66526 h -3.52125 v -2.12936 q 0,-0.21839 -0.15885,-0.38219 -0.13238,-0.16379 -0.34418,-0.16379 H 256.049 q -0.21181,0 -0.37065,0.16379 -0.13238,0.1638 -0.13238,0.38219 v 11.90254 q 0,0.21839 0.13238,0.38219 0.15884,0.1638 0.37065,0.1638 h 1.66796 q 0.2118,0 0.34418,-0.1638 0.15885,-0.1638 0.15885,-0.38219 z m 15.3343,-4.04031 v 6.93405 h -3.70657 v -17.66271 h 3.70657 v 7.39814 h 2.93879 v -7.39814 h 3.70657 v 17.66271 h -3.70657 v -6.93405 z m 24.99783,6.93405 h -3.70658 v -14.65977 q 0,-0.2184 -0.15885,-0.38219 -0.13238,-0.1638 -0.34418,-0.1638 h -1.42969 q -0.2118,0 -0.37065,0.1638 -0.13238,0.16379 -0.13238,0.38219 v 14.65977 h -3.70657 v -14.33218 q 0,-3.60352 3.28296,-3.60352 h 3.28297 q 3.28297,0 3.28297,3.60352 z m 12.07778,-17.66271 v 17.66271 h -3.70657 v -17.66271 z m 19.3056,0 -2.91231,8.10792 3.4683,9.55479 h -3.78601 l -2.54165,-6.98866 h -1.1914 v 6.98866 h -3.70657 v -17.66271 h 3.70657 v 7.39814 h 0.90017 l 2.67404,-7.39814 z m 23.34767,10.72866 v 6.93405 h -3.70658 v -17.66271 h 3.70658 v 7.39814 h 2.93878 v -7.39814 h 3.70658 v 17.66271 h -3.70658 v -6.93405 z m 25.26259,-7.39813 v 11.00165 q 0,3.60352 -3.28298,3.60352 h -3.52124 q -3.28296,0 -3.28296,-3.60352 v -11.00165 q 0,-3.60352 3.28296,-3.60352 h 3.52124 q 3.28298,0 3.28298,3.60352 z m -3.70659,11.43844 v -11.90254 q 0,-0.21839 -0.15884,-0.38219 -0.13238,-0.16379 -0.34419,-0.16379 h -1.66796 q -0.2118,0 -0.37065,0.16379 -0.13238,0.1638 -0.13238,0.38219 v 11.90254 q 0,0.21839 0.13238,0.38219 0.15885,0.1638 0.37065,0.1638 h 1.66796 q 0.21181,0 0.34419,-0.1638 0.15884,-0.1638 0.15884,-0.38219 z m 16.02262,-4.04031 v 6.93405 h -3.70658 v -17.66271 h 3.70658 v 7.39814 h 2.93878 v -7.39814 h 3.70657 v 17.66271 h -3.70657 v -6.93405 z m 18.88199,3.76732 h 4.1037 v 3.16673 h -7.81027 v -17.66271 h 7.81027 v 3.11213 h -4.1037 v 4.14951 h 3.83895 v 3.00293 h -3.83895 z m 21.95315,3.16673 h -3.70657 v -14.65977 q 0,-0.2184 -0.15886,-0.38219 -0.13238,-0.1638 -0.34418,-0.1638 h -1.42968 q -0.2118,0 -0.37066,0.1638 -0.13238,0.16379 -0.13238,0.38219 v 14.65977 h -3.70657 v -14.33218 q 0,-3.60352 3.28296,-3.60352 h 3.28298 q 3.28296,0 3.28296,3.60352 z m 15.17543,-17.9357 q 3.28297,0 3.28297,3.60352 v 14.33218 h -3.70657 v -5.92398 h -2.67403 v 5.92398 h -3.70658 v -14.33218 q 0,-3.60352 3.28297,-3.60352 z m -3.09763,9.06339 h 2.67403 v -5.92397 q 0,-0.21839 -0.15886,-0.38219 -0.13237,-0.16379 -0.34418,-0.16379 h -1.66796 q -0.2118,0 -0.37065,0.16379 -0.13238,0.1638 -0.13238,0.38219 z m 21.8208,-8.7904 q 3.28296,0 3.28296,3.60352 v 10.45566 q 0,3.60353 -3.28296,3.60353 h -6.80422 v -17.66271 z m -0.42361,14.49598 v -11.35655 q 0,-0.2184 -0.15886,-0.38219 -0.13237,-0.1638 -0.34418,-0.1638 h -2.17099 v 12.44852 h 2.17099 q 0.21181,0 0.34418,-0.16379 0.15886,-0.1638 0.15886,-0.38219 z m 16.04913,-0.0546 h 4.05076 v 3.22133 h -7.75733 v -17.66271 h 3.70657 z"
         id="text7"
         style="font-size:26.8843px;line-height:0;font-family:'Squada One';-inkscape-font-specification:'Squada One';letter-spacing:5.97334px;word-spacing:0.712013px;fill:currentcolor;stroke-width:0.49449"
         aria-label="FOLIENTECHNIK HOHENADL"
         inkscape:label="text" />
      <path
         style="fill:currentcolor"
         d="m 181.29626,-215.06846 c -21.45,-0.40754 -42.375,-0.81243 -46.5,-0.89977 -14.88454,-0.31513 -4.69204,-2.09736 12.08333,-2.11285 19.99177,-0.0185 18.48792,1.49168 13.6892,-13.7464 -6.23293,-19.79231 -4.16617,-30.46376 7.2539,-37.45451 5.45428,-3.33882 132.9613,-43.81505 138.01843,-43.813 2.74941,10e-4 124.83891,37.80455 135.11142,41.83551 12.99644,5.09983 16.55808,19.02165 9.99922,39.08517 -5.00681,15.31581 -6.2089,14.07501 13.65351,14.09323 21.75439,0.02 23.95503,1.48655 3.50261,2.33427 -24.13735,1.00047 -242.65566,1.51729 -286.81162,0.67835 z m 263.42597,-17.95558 c 5.45592,-18.03961 5.40114,-24.15051 -2.72575,-30.43842 -8.24721,-6.381 -129.41352,-43.59675 -136.08634,-43.62141 -2.73376,-0.0101 -85.7036,25.32132 -124.69221,38.06964 -18.45591,6.03462 -21.26914,13.10573 -14.31865,35.99019 0.32315,1.06399 1.11354,4.35478 1.99545,7.5415 0.89035,3.21722 0.96852,6.8105 3.64686,6.82121 43.70241,0.17476 228.16657,0.28356 265.19471,0.0862 4.50394,-0.024 6.41609,-12.5648 6.98593,-14.44894 z m -163.91991,4.58546 c 0.82166,-0.77082 7.20993,-3.01461 14.19614,-4.98619 24.4679,-6.90511 25.29361,-8.56677 4.29779,-8.64891 -16.59725,-0.0649 -22.05945,-0.57969 -26.77231,-2.52301 -1.61487,-0.66588 -1.71369,-0.23193 -1.11232,4.88475 0.83281,7.08589 -0.19443,7.20768 -6.46803,0.76682 -12.99037,-13.33672 -32.45628,-11.05567 -42.30953,4.95791 -5.22433,8.49062 -8.27415,2.39718 -4.30897,-8.60918 0.79258,-2.2 1.44783,-4.09651 1.45611,-4.21446 0.0447,-0.6361 -9.70723,4.04982 -10.92713,5.25063 -1.25266,1.23307 -0.92414,1.8679 2.5,4.83093 5.5238,4.77992 -15.59436,6.76279 -25.23648,2.36954 -10.52539,-4.79569 30.62856,-26.10996 55.32152,-28.65188 8.81402,-0.90732 9.58728,-1.19674 21.5,-8.04721 21.14863,-12.16163 40.36441,-16.29343 60.54425,-13.01828 8.21628,1.33348 48.61889,13.39873 49.03354,14.64266 1.1217,3.36511 -28.44723,5.65888 -32.80138,2.54452 -16.25898,-11.62945 -45.41748,-10.89759 -73.41927,1.84279 -15.51034,7.05697 36.32171,9.40473 77,3.48777 39.31898,-5.71925 62.28985,-5.03173 79.01094,2.3648 5.38311,2.38121 5.67997,3.64325 1.03429,4.39714 -11.23112,1.82256 -15.57627,4.71987 -13.4193,8.94788 2.84227,5.57132 3.76912,14.75317 1.48923,14.75317 -0.91556,0 -2.05823,-1.0125 -2.53927,-2.25 -6.25915,-16.10217 -40.42708,-14.24401 -43.75176,2.37936 -0.7606,3.803 -3.3889,3.46026 -4.47017,-0.58293 -0.87425,-3.26907 -0.30665,-6.5919 1.86012,-10.88936 2.55517,-5.06779 -14.47463,-2.64902 -29.4532,4.18329 -14.81041,6.75561 -24.31349,8.94142 -46.25481,10.63911 -6.45529,0.49947 -7.28688,0.38559 -6,-0.82166 z"
         id="path4"
         sodipodi:nodetypes="sscsscsssssssssssssssssssssssssssssssssssssssssssss"
         inkscape:export-filename="Firmenlogo_Folie_SVG.svg"
         inkscape:export-xdpi="96"
         inkscape:export-ydpi="96"
         inkscape:label="top" />
    </g>
  </g>
</svg>
