<svg width="100%" height="100%" viewBox="0 0 40 35" fill="none" xmlns="http://www.w3.org/2000/svg">
<path d="M0 2.91667C0 1.30339 1.27679 0 2.85714 0H37.1429C38.7232 0 40 1.30339 40 2.91667C40 4.52995 38.7232 5.83333 37.1429 5.83333H2.85714C1.27679 5.83333 0 4.52995 0 2.91667ZM0 17.5C0 15.8867 1.27679 14.5833 2.85714 14.5833H37.1429C38.7232 14.5833 40 15.8867 40 17.5C40 19.1133 38.7232 20.4167 37.1429 20.4167H2.85714C1.27679 20.4167 0 19.1133 0 17.5ZM40 32.0833C40 33.6966 38.7232 35 37.1429 35H2.85714C1.27679 35 0 33.6966 0 32.0833C0 30.4701 1.27679 29.1667 2.85714 29.1667H37.1429C38.7232 29.1667 40 30.4701 40 32.0833Z" fill="white"/>
</svg>
